<svg xmlns="http://www.w3.org/2000/svg" xmlns:xlink="http://www.w3.org/1999/xlink" contentStyleType="text/css" data-diagram-type="ACTIVITY" height="922px" preserveAspectRatio="none" style="width:499px;height:922px;background:#FFFFFF;" version="1.1" viewBox="0 0 499 922" width="499px" zoomAndPan="magnify"><title>WealthNest &#8212; Admin Activity Flow (simple)</title><defs/><g><g class="title" data-source-line="1"><text fill="#000000" font-family="sans-serif" font-size="14" font-weight="bold" lengthAdjust="spacing" textLength="311.7871" x="92.168" y="33.5352">WealthNest &#8212; Admin Activity Flow (simple)</text></g><ellipse cx="233.1919" cy="57.4883" fill="#222222" rx="10" ry="10" style="stroke:#222222;stroke-width:1;"/><rect fill="#F1F1F1" height="34.1328" rx="12.5" ry="12.5" style="stroke:#181818;stroke-width:0.5;" width="127.4141" x="169.4849" y="87.4883"/><text fill="#000000" font-family="sans-serif" font-size="12" lengthAdjust="spacing" textLength="107.4141" x="179.4849" y="109.0898">Open Admin Panel</text><rect fill="#F1F1F1" height="34.1328" rx="12.5" ry="12.5" style="stroke:#181818;stroke-width:0.5;" width="157.5254" x="154.4292" y="141.6211"/><text fill="#000000" font-family="sans-serif" font-size="12" lengthAdjust="spacing" textLength="137.5254" x="164.4292" y="163.2227">Enter admin credentials</text><polygon fill="#F1F1F1" points="186.4688,195.7539,279.915,195.7539,291.915,207.7539,279.915,219.7539,186.4688,219.7539,174.4688,207.7539,186.4688,195.7539" style="stroke:#181818;stroke-width:0.5;"/><text fill="#000000" font-family="sans-serif" font-size="11" lengthAdjust="spacing" textLength="93.4463" x="186.4688" y="211.9111">Credentials valid?</text><text fill="#000000" font-family="sans-serif" font-size="11" lengthAdjust="spacing" textLength="17.4829" x="156.9858" y="205.4336">yes</text><text fill="#000000" font-family="sans-serif" font-size="11" lengthAdjust="spacing" textLength="13.5835" x="291.915" y="205.4336">no</text><rect fill="#F1F1F1" height="34.1328" rx="12.5" ry="12.5" style="stroke:#181818;stroke-width:0.5;" width="144.916" x="77.0791" y="229.7539"/><text fill="#000000" font-family="sans-serif" font-size="12" lengthAdjust="spacing" textLength="124.916" x="87.0791" y="251.3555">Create admin session</text><rect fill="#F1F1F1" height="34.1328" rx="12.5" ry="12.5" style="stroke:#181818;stroke-width:0.5;" width="159.2656" x="69.9043" y="283.8867"/><text fill="#000000" font-family="sans-serif" font-size="12" lengthAdjust="spacing" textLength="139.2656" x="79.9043" y="305.4883">Show Admin Dashboard</text><rect fill="#F1F1F1" height="34.1328" rx="12.5" ry="12.5" style="stroke:#181818;stroke-width:0.5;" width="135.3535" x="249.1699" y="229.7539"/><text fill="#000000" font-family="sans-serif" font-size="12" lengthAdjust="spacing" textLength="115.3535" x="259.1699" y="251.3555">Show access denied</text><ellipse cx="316.8467" cy="294.8867" fill="none" rx="11" ry="11" style="stroke:#222222;stroke-width:1;"/><ellipse cx="316.8467" cy="294.8867" fill="#222222" rx="6" ry="6" style="stroke:#222222;stroke-width:1;"/><rect fill="#F1F1F1" height="34.1328" rx="12.5" ry="12.5" style="stroke:#181818;stroke-width:0.5;" width="83.1875" x="191.5981" y="338.0195"/><text fill="#000000" font-family="sans-serif" font-size="12" lengthAdjust="spacing" textLength="63.1875" x="201.5981" y="359.6211">View Users</text><rect fill="#F1F1F1" height="34.1328" rx="12.5" ry="12.5" style="stroke:#181818;stroke-width:0.5;" width="200.4512" x="132.9663" y="392.1523"/><text fill="#000000" font-family="sans-serif" font-size="12" lengthAdjust="spacing" textLength="180.4512" x="142.9663" y="413.7539">View Transactions and Ledgers</text><polygon fill="#F1F1F1" points="182.0295,446.2852,284.3542,446.2852,296.3542,458.2852,284.3542,470.2852,182.0295,470.2852,170.0295,458.2852,182.0295,446.2852" style="stroke:#181818;stroke-width:0.5;"/><text fill="#000000" font-family="sans-serif" font-size="11" lengthAdjust="spacing" textLength="102.3247" x="182.0295" y="462.4424">Suspicious activity?</text><text fill="#000000" font-family="sans-serif" font-size="11" lengthAdjust="spacing" textLength="17.4829" x="152.5466" y="455.9648">yes</text><text fill="#000000" font-family="sans-serif" font-size="11" lengthAdjust="spacing" textLength="13.5835" x="296.3542" y="455.9648">no</text><rect fill="#F1F1F1" height="34.1328" rx="12.5" ry="12.5" style="stroke:#181818;stroke-width:0.5;" width="179.8027" x="19.0098" y="480.2852"/><text fill="#000000" font-family="sans-serif" font-size="12" lengthAdjust="spacing" textLength="159.8027" x="29.0098" y="501.8867">Flag user / Flag transaction</text><rect fill="#F1F1F1" height="34.1328" rx="12.5" ry="12.5" style="stroke:#181818;stroke-width:0.5;" width="190.0684" x="13.877" y="534.418"/><text fill="#000000" font-family="sans-serif" font-size="12" lengthAdjust="spacing" textLength="170.0684" x="23.877" y="556.0195">Click "Ban User" or "Suspend"</text><rect fill="#F1F1F1" height="34.1328" rx="12.5" ry="12.5" style="stroke:#181818;stroke-width:0.5;" width="195.8223" x="11" y="588.5508"/><text fill="#000000" font-family="sans-serif" font-size="12" lengthAdjust="spacing" textLength="175.8223" x="21" y="610.1523">Update users.status = banned</text><rect fill="#F1F1F1" height="34.1328" rx="12.5" ry="12.5" style="stroke:#181818;stroke-width:0.5;" width="159.3418" x="29.2402" y="642.6836"/><text fill="#000000" font-family="sans-serif" font-size="12" lengthAdjust="spacing" textLength="139.3418" x="39.2402" y="664.2852">Insert Admin_Audit_Log</text><rect fill="#F1F1F1" height="34.1328" rx="12.5" ry="12.5" style="stroke:#181818;stroke-width:0.5;" width="143.2285" x="37.2969" y="696.8164"/><text fill="#000000" font-family="sans-serif" font-size="12" lengthAdjust="spacing" textLength="123.2285" x="47.2969" y="718.418">Notify user (optional)</text><rect fill="#F1F1F1" height="34.1328" rx="12.5" ry="12.5" style="stroke:#181818;stroke-width:0.5;" width="261.3008" x="226.8223" y="480.2852"/><text fill="#000000" font-family="sans-serif" font-size="12" lengthAdjust="spacing" textLength="241.3008" x="236.8223" y="501.8867">Resolve disputes / Reconcile transactions</text><polygon fill="#F1F1F1" points="233.1919,736.9492,245.1919,748.9492,233.1919,760.9492,221.1919,748.9492,233.1919,736.9492" style="stroke:#181818;stroke-width:0.5;"/><rect fill="#F1F1F1" height="34.1328" rx="12.5" ry="12.5" style="stroke:#181818;stroke-width:0.5;" width="251.9727" x="107.2056" y="780.9492"/><text fill="#000000" font-family="sans-serif" font-size="12" lengthAdjust="spacing" textLength="231.9727" x="117.2056" y="802.5508">Run reports / export reconciliation data</text><rect fill="#F1F1F1" height="34.1328" rx="12.5" ry="12.5" style="stroke:#181818;stroke-width:0.5;" width="166.1211" x="150.1313" y="835.082"/><text fill="#000000" font-family="sans-serif" font-size="12" lengthAdjust="spacing" textLength="146.1211" x="160.1313" y="856.6836">Review Admin_Audit_Log</text><ellipse cx="233.1919" cy="900.2148" fill="none" rx="11" ry="11" style="stroke:#222222;stroke-width:1;"/><ellipse cx="233.1919" cy="900.2148" fill="#222222" rx="6" ry="6" style="stroke:#222222;stroke-width:1;"/><line style="stroke:#181818;stroke-width:1;" x1="233.1919" x2="233.1919" y1="67.4883" y2="87.4883"/><polygon fill="#181818" points="229.1919,77.4883,233.1919,87.4883,237.1919,77.4883,233.1919,81.4883" style="stroke:#181818;stroke-width:1;"/><line style="stroke:#181818;stroke-width:1;" x1="233.1919" x2="233.1919" y1="121.6211" y2="141.6211"/><polygon fill="#181818" points="229.1919,131.6211,233.1919,141.6211,237.1919,131.6211,233.1919,135.6211" style="stroke:#181818;stroke-width:1;"/><line style="stroke:#181818;stroke-width:1;" x1="149.5371" x2="149.5371" y1="263.8867" y2="283.8867"/><polygon fill="#181818" points="145.5371,273.8867,149.5371,283.8867,153.5371,273.8867,149.5371,277.8867" style="stroke:#181818;stroke-width:1;"/><line style="stroke:#181818;stroke-width:1;" x1="316.8467" x2="316.8467" y1="263.8867" y2="283.8867"/><polygon fill="#181818" points="312.8467,273.8867,316.8467,283.8867,320.8467,273.8867,316.8467,277.8867" style="stroke:#181818;stroke-width:1;"/><line style="stroke:#181818;stroke-width:1;" x1="174.4688" x2="149.5371" y1="207.7539" y2="207.7539"/><line style="stroke:#181818;stroke-width:1;" x1="149.5371" x2="149.5371" y1="207.7539" y2="229.7539"/><polygon fill="#181818" points="145.5371,219.7539,149.5371,229.7539,153.5371,219.7539,149.5371,223.7539" style="stroke:#181818;stroke-width:1;"/><line style="stroke:#181818;stroke-width:1;" x1="291.915" x2="316.8467" y1="207.7539" y2="207.7539"/><line style="stroke:#181818;stroke-width:1;" x1="316.8467" x2="316.8467" y1="207.7539" y2="229.7539"/><polygon fill="#181818" points="312.8467,219.7539,316.8467,229.7539,320.8467,219.7539,316.8467,223.7539" style="stroke:#181818;stroke-width:1;"/><line style="stroke:#181818;stroke-width:1;" x1="149.5371" x2="149.5371" y1="318.0195" y2="323.0195"/><line style="stroke:#181818;stroke-width:1;" x1="149.5371" x2="233.1919" y1="323.0195" y2="323.0195"/><line style="stroke:#181818;stroke-width:1;" x1="233.1919" x2="233.1919" y1="323.0195" y2="338.0195"/><polygon fill="#181818" points="229.1919,328.0195,233.1919,338.0195,237.1919,328.0195,233.1919,332.0195" style="stroke:#181818;stroke-width:1;"/><line style="stroke:#181818;stroke-width:1;" x1="233.1919" x2="233.1919" y1="175.7539" y2="195.7539"/><polygon fill="#181818" points="229.1919,185.7539,233.1919,195.7539,237.1919,185.7539,233.1919,189.7539" style="stroke:#181818;stroke-width:1;"/><line style="stroke:#181818;stroke-width:1;" x1="233.1919" x2="233.1919" y1="372.1523" y2="392.1523"/><polygon fill="#181818" points="229.1919,382.1523,233.1919,392.1523,237.1919,382.1523,233.1919,386.1523" style="stroke:#181818;stroke-width:1;"/><line style="stroke:#181818;stroke-width:1;" x1="108.9111" x2="108.9111" y1="514.418" y2="534.418"/><polygon fill="#181818" points="104.9111,524.418,108.9111,534.418,112.9111,524.418,108.9111,528.418" style="stroke:#181818;stroke-width:1;"/><line style="stroke:#181818;stroke-width:1;" x1="108.9111" x2="108.9111" y1="568.5508" y2="588.5508"/><polygon fill="#181818" points="104.9111,578.5508,108.9111,588.5508,112.9111,578.5508,108.9111,582.5508" style="stroke:#181818;stroke-width:1;"/><line style="stroke:#181818;stroke-width:1;" x1="108.9111" x2="108.9111" y1="622.6836" y2="642.6836"/><polygon fill="#181818" points="104.9111,632.6836,108.9111,642.6836,112.9111,632.6836,108.9111,636.6836" style="stroke:#181818;stroke-width:1;"/><line style="stroke:#181818;stroke-width:1;" x1="108.9111" x2="108.9111" y1="676.8164" y2="696.8164"/><polygon fill="#181818" points="104.9111,686.8164,108.9111,696.8164,112.9111,686.8164,108.9111,690.8164" style="stroke:#181818;stroke-width:1;"/><line style="stroke:#181818;stroke-width:1;" x1="170.0295" x2="108.9111" y1="458.2852" y2="458.2852"/><line style="stroke:#181818;stroke-width:1;" x1="108.9111" x2="108.9111" y1="458.2852" y2="480.2852"/><polygon fill="#181818" points="104.9111,470.2852,108.9111,480.2852,112.9111,470.2852,108.9111,474.2852" style="stroke:#181818;stroke-width:1;"/><line style="stroke:#181818;stroke-width:1;" x1="296.3542" x2="357.4727" y1="458.2852" y2="458.2852"/><line style="stroke:#181818;stroke-width:1;" x1="357.4727" x2="357.4727" y1="458.2852" y2="480.2852"/><polygon fill="#181818" points="353.4727,470.2852,357.4727,480.2852,361.4727,470.2852,357.4727,474.2852" style="stroke:#181818;stroke-width:1;"/><line style="stroke:#181818;stroke-width:1;" x1="108.9111" x2="108.9111" y1="730.9492" y2="748.9492"/><line style="stroke:#181818;stroke-width:1;" x1="108.9111" x2="221.1919" y1="748.9492" y2="748.9492"/><polygon fill="#181818" points="211.1919,744.9492,221.1919,748.9492,211.1919,752.9492,215.1919,748.9492" style="stroke:#181818;stroke-width:1;"/><line style="stroke:#181818;stroke-width:1;" x1="357.4727" x2="357.4727" y1="514.418" y2="748.9492"/><line style="stroke:#181818;stroke-width:1;" x1="357.4727" x2="245.1919" y1="748.9492" y2="748.9492"/><polygon fill="#181818" points="255.1919,744.9492,245.1919,748.9492,255.1919,752.9492,251.1919,748.9492" style="stroke:#181818;stroke-width:1;"/><line style="stroke:#181818;stroke-width:1;" x1="233.1919" x2="233.1919" y1="426.2852" y2="446.2852"/><polygon fill="#181818" points="229.1919,436.2852,233.1919,446.2852,237.1919,436.2852,233.1919,440.2852" style="stroke:#181818;stroke-width:1;"/><line style="stroke:#181818;stroke-width:1;" x1="233.1919" x2="233.1919" y1="760.9492" y2="780.9492"/><polygon fill="#181818" points="229.1919,770.9492,233.1919,780.9492,237.1919,770.9492,233.1919,774.9492" style="stroke:#181818;stroke-width:1;"/><line style="stroke:#181818;stroke-width:1;" x1="233.1919" x2="233.1919" y1="815.082" y2="835.082"/><polygon fill="#181818" points="229.1919,825.082,233.1919,835.082,237.1919,825.082,233.1919,829.082" style="stroke:#181818;stroke-width:1;"/><line style="stroke:#181818;stroke-width:1;" x1="233.1919" x2="233.1919" y1="869.2148" y2="889.2148"/><polygon fill="#181818" points="229.1919,879.2148,233.1919,889.2148,237.1919,879.2148,233.1919,883.2148" style="stroke:#181818;stroke-width:1;"/><!--SRC=[PP5DRjj038NtSmh2AsdJx6qKWPiVe42G1ixVCc0qj4rqmX66b1FlUeYUC2S9HtAR8DcDo4U-Zq_6bWZk2PDjBqaDNl_yXMLyOe5bPxnZsyDvoi_GA3_rYTeGrB1O2FDVFSb1UeL2QH7cPs9K0CTQLoYI66FIHU0rD2Vl1TXXudZSWcrzHxCdRGF0t1LeT9XNKkKiYzgutZh1P7MAkdtCME8YK5A2HdBxNu9TvrFWDaonJghbFf14NZlm7TCpt2eL1ve-RWgAej-PHG4bmWN5pTYlmDU3zjnn7hntoE8Bydd23Go-4uvWVDlxoX7z977t6sO_K4Rh6UG2ixhPgMQZuhQFzUgwHBzvkEP-t-4HHQORvZ_5MpRT_x0S8jl3HTwChSjilDvF04tkgokczbCqAzASTWIHjH-Cr55Nr6Nfs7_z1ru_-rzKgq6WK9-BLJMzr9SNfY76gWQdHWzoHRiQvHUw6lqR]--></g></svg>